<mxfile host="65bd71144e">
    <diagram id="Pc5C73rrX1-zRQpe6xOV" name="ページ1">
        <mxGraphModel dx="652" dy="622" grid="1" gridSize="10" guides="1" tooltips="1" connect="1" arrows="1" fold="1" page="1" pageScale="1" pageWidth="850" pageHeight="1100" math="0" shadow="0">
            <root>
                <mxCell id="0"/>
                <mxCell id="1" parent="0"/>
                <mxCell id="2" value="Start" style="rounded=1;whiteSpace=wrap;html=1;" vertex="1" parent="1">
                    <mxGeometry x="280" y="60" width="120" height="60" as="geometry"/>
                </mxCell>
                <mxCell id="5" value="Turn green light on for three minutes." style="rounded=0;whiteSpace=wrap;html=1;" vertex="1" parent="1">
                    <mxGeometry x="150" y="190" width="120" height="70" as="geometry"/>
                </mxCell>
                <mxCell id="6" value="Turn red light on for three minutes and&lt;br&gt;&amp;nbsp;10 seconds." style="rounded=0;whiteSpace=wrap;html=1;" vertex="1" parent="1">
                    <mxGeometry x="425" y="190" width="120" height="60" as="geometry"/>
                </mxCell>
                <mxCell id="7" value="It's for north and south traffic light." style="ellipse;whiteSpace=wrap;html=1;aspect=fixed;" vertex="1" parent="1">
                    <mxGeometry x="160" y="70" width="80" height="80" as="geometry"/>
                </mxCell>
                <mxCell id="8" value="It's for western and eastern traffic light." style="ellipse;whiteSpace=wrap;html=1;aspect=fixed;" vertex="1" parent="1">
                    <mxGeometry x="450" y="60" width="80" height="80" as="geometry"/>
                </mxCell>
                <mxCell id="9" value="Turn yellow light on for 10 seconds." style="rounded=0;whiteSpace=wrap;html=1;" vertex="1" parent="1">
                    <mxGeometry x="150" y="310" width="120" height="60" as="geometry"/>
                </mxCell>
                <mxCell id="11" value="&lt;span&gt;Turn yellow light on for 10 seconds.&lt;/span&gt;" style="rounded=0;whiteSpace=wrap;html=1;" vertex="1" parent="1">
                    <mxGeometry x="425" y="300" width="120" height="60" as="geometry"/>
                </mxCell>
                <mxCell id="12" style="edgeStyle=orthogonalEdgeStyle;rounded=0;orthogonalLoop=1;jettySize=auto;html=1;exitX=0.5;exitY=1;exitDx=0;exitDy=0;" edge="1" parent="1" source="9" target="9">
                    <mxGeometry relative="1" as="geometry"/>
                </mxCell>
                <mxCell id="13" value="Turn red light on for three minutes and&lt;br&gt;&amp;nbsp;10 seconds." style="rounded=0;whiteSpace=wrap;html=1;" vertex="1" parent="1">
                    <mxGeometry x="150" y="410" width="120" height="60" as="geometry"/>
                </mxCell>
                <mxCell id="14" value="Turn green light on for three minutes." style="rounded=0;whiteSpace=wrap;html=1;" vertex="1" parent="1">
                    <mxGeometry x="425" y="400" width="120" height="70" as="geometry"/>
                </mxCell>
                <mxCell id="15" value="Turn yellow light on for 10 seconds." style="rounded=0;whiteSpace=wrap;html=1;" vertex="1" parent="1">
                    <mxGeometry x="150" y="510" width="120" height="60" as="geometry"/>
                </mxCell>
                <mxCell id="16" value="Turn yellow light on for 10 seconds." style="rounded=0;whiteSpace=wrap;html=1;" vertex="1" parent="1">
                    <mxGeometry x="430" y="510" width="120" height="60" as="geometry"/>
                </mxCell>
                <mxCell id="17" value="" style="endArrow=classic;html=1;entryX=0.433;entryY=-0.007;entryDx=0;entryDy=0;entryPerimeter=0;" edge="1" parent="1" target="5">
                    <mxGeometry width="50" height="50" relative="1" as="geometry">
                        <mxPoint x="202" y="160" as="sourcePoint"/>
                        <mxPoint x="360" y="370" as="targetPoint"/>
                    </mxGeometry>
                </mxCell>
                <mxCell id="18" value="" style="endArrow=classic;html=1;exitX=0.508;exitY=1.129;exitDx=0;exitDy=0;exitPerimeter=0;entryX=0.5;entryY=0;entryDx=0;entryDy=0;" edge="1" parent="1" source="5" target="9">
                    <mxGeometry width="50" height="50" relative="1" as="geometry">
                        <mxPoint x="360" y="300" as="sourcePoint"/>
                        <mxPoint x="410" y="250" as="targetPoint"/>
                    </mxGeometry>
                </mxCell>
                <mxCell id="19" value="" style="endArrow=classic;html=1;exitX=0.5;exitY=1;exitDx=0;exitDy=0;entryX=0;entryY=0.5;entryDx=0;entryDy=0;" edge="1" parent="1" source="15" target="5">
                    <mxGeometry width="50" height="50" relative="1" as="geometry">
                        <mxPoint x="360" y="380" as="sourcePoint"/>
                        <mxPoint x="210" y="733" as="targetPoint"/>
                        <Array as="points">
                            <mxPoint x="210" y="630"/>
                            <mxPoint x="120" y="630"/>
                            <mxPoint x="120" y="225"/>
                        </Array>
                    </mxGeometry>
                </mxCell>
            </root>
        </mxGraphModel>
    </diagram>
</mxfile>